<svg width="10" height="8" viewBox="0 0 10 8" fill="url(#paint0_linear)" xmlns="http://www.w3.org/2000/svg">
<path d="M4.96513 7.88672L4.35966 7.33984C3.66956 6.71484 3.16826 6.2526 2.85576 5.95312C2.54326 5.65365 2.19169 5.28255 1.80107 4.83984C1.42347 4.39714 1.16305 4 1.01982 3.64844C0.876591 3.28385 0.804976 2.91276 0.804976 2.53516C0.804976 1.89714 1.01982 1.35677 1.44951 0.914062C1.89222 0.471354 2.43909 0.25 3.09013 0.25C3.84534 0.25 4.47034 0.542969 4.96513 1.12891C5.45992 0.542969 6.08492 0.25 6.84013 0.25C7.49117 0.25 8.03154 0.471354 8.46123 0.914062C8.90393 1.35677 9.12529 1.89714 9.12529 2.53516C9.12529 3.04297 8.95602 3.57031 8.61748 4.11719C8.27893 4.66406 7.90784 5.13932 7.50419 5.54297C7.11357 5.94661 6.46904 6.55208 5.5706 7.35938L4.96513 7.88672Z" />
<defs>
<linearGradient id="paint0_linear" x1="4.96513" y1="-1" x2="4.96513" y2="9" gradientUnits="userSpaceOnUse">
<stop stop-color="#BC9CFF"/>
<stop offset="1" stop-color="#8BA4F9"/>
</linearGradient>
</defs>
</svg>
